<?xml version="1.0" encoding="UTF-8"?>
<!DOCTYPE score-partwise PUBLIC "-//Recordare//DTD MusicXML 3.1 Partwise//EN" "http://www.musicxml.org/dtds/partwise.dtd">
<score-partwise version="3.1">
  <work>
    <work-title>Victory March</work-title>
  </work>
  <identification>
    <creator type="composer">Traditional Fight Song</creator>
    <encoding>
      <software>MarchingMadness</software>
      <encoding-date>2026-04-08</encoding-date>
    </encoding>
  </identification>
  <part-list>
    <score-part id="P1">
      <part-name>Trumpet in Bb 1</part-name>
      <score-instrument id="P1-I1">
        <instrument-name>Trumpet</instrument-name>
      </score-instrument>
      <midi-instrument id="P1-I1">
        <midi-channel>1</midi-channel>
        <midi-program>57</midi-program>
      </midi-instrument>
      <transpose>
        <diatonic>-1</diatonic>
        <chromatic>-2</chromatic>
      </transpose>
    </score-part>
    <score-part id="P2">
      <part-name>Trumpet in Bb 2</part-name>
      <score-instrument id="P2-I1">
        <instrument-name>Trumpet</instrument-name>
      </score-instrument>
      <midi-instrument id="P2-I1">
        <midi-channel>2</midi-channel>
        <midi-program>57</midi-program>
      </midi-instrument>
      <transpose>
        <diatonic>-1</diatonic>
        <chromatic>-2</chromatic>
      </transpose>
    </score-part>
    <score-part id="P3">
      <part-name>Horn in F</part-name>
      <score-instrument id="P3-I1">
        <instrument-name>French Horn</instrument-name>
      </score-instrument>
      <midi-instrument id="P3-I1">
        <midi-channel>3</midi-channel>
        <midi-program>61</midi-program>
      </midi-instrument>
      <transpose>
        <diatonic>-4</diatonic>
        <chromatic>-7</chromatic>
      </transpose>
    </score-part>
    <score-part id="P4">
      <part-name>Trombone</part-name>
      <score-instrument id="P4-I1">
        <instrument-name>Trombone</instrument-name>
      </score-instrument>
      <midi-instrument id="P4-I1">
        <midi-channel>4</midi-channel>
        <midi-program>58</midi-program>
      </midi-instrument>
    </score-part>
    <score-part id="P5">
      <part-name>Tuba</part-name>
      <score-instrument id="P5-I1">
        <instrument-name>Tuba</instrument-name>
      </score-instrument>
      <midi-instrument id="P5-I1">
        <midi-channel>5</midi-channel>
        <midi-program>59</midi-program>
      </midi-instrument>
    </score-part>
  </part-list>
  <part id="P1">
    <measure number="1">
      <attributes>
        <divisions>4</divisions>
        <key><fifths>0</fifths></key>
        <time><beats>4</beats><beat-type>4</beat-type></time>
        <clef><sign>G</sign><line>2</line></clef>
      </attributes>
      <direction placement="above"><direction-type><metronome><beat-unit>quarter</beat-unit><per-minute>120</per-minute></metronome></direction-type></direction>
      <note><pitch><step>D</step><octave>5</octave></pitch><duration>2</duration><type>eighth</type></note>
      <note><pitch><step>D</step><octave>5</octave></pitch><duration>2</duration><type>eighth</type></note>
      <note><pitch><step>D</step><octave>5</octave></pitch><duration>4</duration><type>quarter</type></note>
      <note><pitch><step>D</step><octave>5</octave></pitch><duration>2</duration><type>eighth</type></note>
      <note><pitch><step>C</step><octave>5</octave></pitch><duration>2</duration><type>eighth</type></note>
      <note><pitch><step>D</step><octave>5</octave></pitch><duration>4</duration><type>quarter</type></note>
    </measure>
    <measure number="2">
      <note><pitch><step>E</step><octave>5</octave></pitch><duration>4</duration><type>quarter</type></note>
      <note><pitch><step>D</step><octave>5</octave></pitch><duration>4</duration><type>quarter</type></note>
      <note><pitch><step>E</step><octave>5</octave></pitch><duration>4</duration><type>quarter</type></note>
      <note><pitch><step>F</step><alter>1</alter><octave>5</octave></pitch><duration>4</duration><type>quarter</type></note>
    </measure>
    <measure number="3">
      <note><pitch><step>E</step><octave>5</octave></pitch><duration>8</duration><type>half</type></note>
      <note><pitch><step>D</step><octave>5</octave></pitch><duration>4</duration><type>quarter</type></note>
      <note><pitch><step>C</step><octave>5</octave></pitch><duration>4</duration><type>quarter</type></note>
    </measure>
    <measure number="4">
      <note><pitch><step>D</step><octave>5</octave></pitch><duration>12</duration><type>dotted half</type><dot/></note>
      <note><rest/><duration>4</duration><type>quarter</type></note>
    </measure>
    <measure number="5">
      <note><pitch><step>D</step><octave>5</octave></pitch><duration>2</duration><type>eighth</type></note>
      <note><pitch><step>D</step><octave>5</octave></pitch><duration>2</duration><type>eighth</type></note>
      <note><pitch><step>E</step><octave>5</octave></pitch><duration>4</duration><type>quarter</type></note>
      <note><pitch><step>D</step><octave>5</octave></pitch><duration>2</duration><type>eighth</type></note>
      <note><pitch><step>C</step><octave>5</octave></pitch><duration>2</duration><type>eighth</type></note>
      <note><pitch><step>D</step><octave>5</octave></pitch><duration>4</duration><type>quarter</type></note>
    </measure>
    <measure number="6">
      <note><pitch><step>E</step><octave>5</octave></pitch><duration>4</duration><type>quarter</type></note>
      <note><pitch><step>D</step><octave>5</octave></pitch><duration>4</duration><type>quarter</type></note>
      <note><pitch><step>E</step><octave>5</octave></pitch><duration>4</duration><type>quarter</type></note>
      <note><pitch><step>G</step><octave>5</octave></pitch><duration>4</duration><type>quarter</type></note>
    </measure>
    <measure number="7">
      <note><pitch><step>F</step><alter>1</alter><octave>5</octave></pitch><duration>8</duration><type>half</type></note>
      <note><pitch><step>E</step><octave>5</octave></pitch><duration>4</duration><type>quarter</type></note>
      <note><pitch><step>D</step><octave>5</octave></pitch><duration>4</duration><type>quarter</type></note>
    </measure>
    <measure number="8">
      <note><pitch><step>E</step><octave>5</octave></pitch><duration>12</duration><type>dotted half</type><dot/></note>
      <note><rest/><duration>4</duration><type>quarter</type></note>
    </measure>
    <measure number="9">
      <note><pitch><step>G</step><octave>5</octave></pitch><duration>2</duration><type>eighth</type></note>
      <note><pitch><step>G</step><octave>5</octave></pitch><duration>2</duration><type>eighth</type></note>
      <note><pitch><step>G</step><octave>5</octave></pitch><duration>4</duration><type>quarter</type></note>
      <note><pitch><step>F</step><alter>1</alter><octave>5</octave></pitch><duration>4</duration><type>quarter</type></note>
      <note><pitch><step>E</step><octave>5</octave></pitch><duration>4</duration><type>quarter</type></note>
    </measure>
    <measure number="10">
      <note><pitch><step>F</step><alter>1</alter><octave>5</octave></pitch><duration>4</duration><type>quarter</type></note>
      <note><pitch><step>E</step><octave>5</octave></pitch><duration>4</duration><type>quarter</type></note>
      <note><pitch><step>D</step><octave>5</octave></pitch><duration>4</duration><type>quarter</type></note>
      <note><pitch><step>C</step><octave>5</octave></pitch><duration>4</duration><type>quarter</type></note>
    </measure>
    <measure number="11">
      <note><pitch><step>D</step><octave>5</octave></pitch><duration>4</duration><type>quarter</type></note>
      <note><pitch><step>E</step><octave>5</octave></pitch><duration>4</duration><type>quarter</type></note>
      <note><pitch><step>F</step><alter>1</alter><octave>5</octave></pitch><duration>4</duration><type>quarter</type></note>
      <note><pitch><step>G</step><octave>5</octave></pitch><duration>4</duration><type>quarter</type></note>
    </measure>
    <measure number="12">
      <note><pitch><step>A</step><octave>5</octave></pitch><duration>8</duration><type>half</type></note>
      <note><pitch><step>G</step><octave>5</octave></pitch><duration>4</duration><type>quarter</type></note>
      <note><pitch><step>F</step><alter>1</alter><octave>5</octave></pitch><duration>4</duration><type>quarter</type></note>
    </measure>
    <measure number="13">
      <note><pitch><step>G</step><octave>5</octave></pitch><duration>2</duration><type>eighth</type></note>
      <note><pitch><step>G</step><octave>5</octave></pitch><duration>2</duration><type>eighth</type></note>
      <note><pitch><step>A</step><octave>5</octave></pitch><duration>4</duration><type>quarter</type></note>
      <note><pitch><step>G</step><octave>5</octave></pitch><duration>4</duration><type>quarter</type></note>
      <note><pitch><step>F</step><alter>1</alter><octave>5</octave></pitch><duration>4</duration><type>quarter</type></note>
    </measure>
    <measure number="14">
      <note><pitch><step>E</step><octave>5</octave></pitch><duration>4</duration><type>quarter</type></note>
      <note><pitch><step>D</step><octave>5</octave></pitch><duration>4</duration><type>quarter</type></note>
      <note><pitch><step>C</step><octave>5</octave></pitch><duration>4</duration><type>quarter</type></note>
      <note><pitch><step>D</step><octave>5</octave></pitch><duration>4</duration><type>quarter</type></note>
    </measure>
    <measure number="15">
      <note><pitch><step>E</step><octave>5</octave></pitch><duration>8</duration><type>half</type></note>
      <note><pitch><step>D</step><octave>5</octave></pitch><duration>8</duration><type>half</type></note>
    </measure>
    <measure number="16">
      <note><pitch><step>D</step><octave>5</octave></pitch><duration>16</duration><type>whole</type></note>
      <barline location="right"><bar-style>light-heavy</bar-style></barline>
    </measure>
  </part>
  <part id="P2">
    <measure number="1">
      <attributes>
        <divisions>4</divisions>
        <key><fifths>0</fifths></key>
        <time><beats>4</beats><beat-type>4</beat-type></time>
        <clef><sign>G</sign><line>2</line></clef>
      </attributes>
      <note><pitch><step>B</step><octave>4</octave></pitch><duration>2</duration><type>eighth</type></note>
      <note><pitch><step>B</step><octave>4</octave></pitch><duration>2</duration><type>eighth</type></note>
      <note><pitch><step>B</step><octave>4</octave></pitch><duration>4</duration><type>quarter</type></note>
      <note><pitch><step>B</step><octave>4</octave></pitch><duration>2</duration><type>eighth</type></note>
      <note><pitch><step>A</step><octave>4</octave></pitch><duration>2</duration><type>eighth</type></note>
      <note><pitch><step>B</step><octave>4</octave></pitch><duration>4</duration><type>quarter</type></note>
    </measure>
    <measure number="2">
      <note><pitch><step>C</step><octave>5</octave></pitch><duration>4</duration><type>quarter</type></note>
      <note><pitch><step>B</step><octave>4</octave></pitch><duration>4</duration><type>quarter</type></note>
      <note><pitch><step>C</step><octave>5</octave></pitch><duration>4</duration><type>quarter</type></note>
      <note><pitch><step>D</step><octave>5</octave></pitch><duration>4</duration><type>quarter</type></note>
    </measure>
    <measure number="3">
      <note><pitch><step>C</step><octave>5</octave></pitch><duration>8</duration><type>half</type></note>
      <note><pitch><step>B</step><octave>4</octave></pitch><duration>4</duration><type>quarter</type></note>
      <note><pitch><step>A</step><octave>4</octave></pitch><duration>4</duration><type>quarter</type></note>
    </measure>
    <measure number="4">
      <note><pitch><step>B</step><octave>4</octave></pitch><duration>12</duration><type>dotted half</type><dot/></note>
      <note><rest/><duration>4</duration><type>quarter</type></note>
    </measure>
    <measure number="5">
      <note><pitch><step>B</step><octave>4</octave></pitch><duration>2</duration><type>eighth</type></note>
      <note><pitch><step>B</step><octave>4</octave></pitch><duration>2</duration><type>eighth</type></note>
      <note><pitch><step>C</step><octave>5</octave></pitch><duration>4</duration><type>quarter</type></note>
      <note><pitch><step>B</step><octave>4</octave></pitch><duration>2</duration><type>eighth</type></note>
      <note><pitch><step>A</step><octave>4</octave></pitch><duration>2</duration><type>eighth</type></note>
      <note><pitch><step>B</step><octave>4</octave></pitch><duration>4</duration><type>quarter</type></note>
    </measure>
    <measure number="6">
      <note><pitch><step>C</step><octave>5</octave></pitch><duration>4</duration><type>quarter</type></note>
      <note><pitch><step>B</step><octave>4</octave></pitch><duration>4</duration><type>quarter</type></note>
      <note><pitch><step>C</step><octave>5</octave></pitch><duration>4</duration><type>quarter</type></note>
      <note><pitch><step>E</step><octave>5</octave></pitch><duration>4</duration><type>quarter</type></note>
    </measure>
    <measure number="7">
      <note><pitch><step>D</step><octave>5</octave></pitch><duration>8</duration><type>half</type></note>
      <note><pitch><step>C</step><octave>5</octave></pitch><duration>4</duration><type>quarter</type></note>
      <note><pitch><step>B</step><octave>4</octave></pitch><duration>4</duration><type>quarter</type></note>
    </measure>
    <measure number="8">
      <note><pitch><step>C</step><octave>5</octave></pitch><duration>12</duration><type>dotted half</type><dot/></note>
      <note><rest/><duration>4</duration><type>quarter</type></note>
    </measure>
    <measure number="9">
      <note><pitch><step>E</step><octave>5</octave></pitch><duration>2</duration><type>eighth</type></note>
      <note><pitch><step>E</step><octave>5</octave></pitch><duration>2</duration><type>eighth</type></note>
      <note><pitch><step>E</step><octave>5</octave></pitch><duration>4</duration><type>quarter</type></note>
      <note><pitch><step>D</step><octave>5</octave></pitch><duration>4</duration><type>quarter</type></note>
      <note><pitch><step>C</step><octave>5</octave></pitch><duration>4</duration><type>quarter</type></note>
    </measure>
    <measure number="10">
      <note><pitch><step>D</step><octave>5</octave></pitch><duration>4</duration><type>quarter</type></note>
      <note><pitch><step>C</step><octave>5</octave></pitch><duration>4</duration><type>quarter</type></note>
      <note><pitch><step>B</step><octave>4</octave></pitch><duration>4</duration><type>quarter</type></note>
      <note><pitch><step>A</step><octave>4</octave></pitch><duration>4</duration><type>quarter</type></note>
    </measure>
    <measure number="11">
      <note><pitch><step>B</step><octave>4</octave></pitch><duration>4</duration><type>quarter</type></note>
      <note><pitch><step>C</step><octave>5</octave></pitch><duration>4</duration><type>quarter</type></note>
      <note><pitch><step>D</step><octave>5</octave></pitch><duration>4</duration><type>quarter</type></note>
      <note><pitch><step>E</step><octave>5</octave></pitch><duration>4</duration><type>quarter</type></note>
    </measure>
    <measure number="12">
      <note><pitch><step>F</step><alter>1</alter><octave>5</octave></pitch><duration>8</duration><type>half</type></note>
      <note><pitch><step>E</step><octave>5</octave></pitch><duration>4</duration><type>quarter</type></note>
      <note><pitch><step>D</step><octave>5</octave></pitch><duration>4</duration><type>quarter</type></note>
    </measure>
    <measure number="13">
      <note><pitch><step>E</step><octave>5</octave></pitch><duration>2</duration><type>eighth</type></note>
      <note><pitch><step>E</step><octave>5</octave></pitch><duration>2</duration><type>eighth</type></note>
      <note><pitch><step>F</step><alter>1</alter><octave>5</octave></pitch><duration>4</duration><type>quarter</type></note>
      <note><pitch><step>E</step><octave>5</octave></pitch><duration>4</duration><type>quarter</type></note>
      <note><pitch><step>D</step><octave>5</octave></pitch><duration>4</duration><type>quarter</type></note>
    </measure>
    <measure number="14">
      <note><pitch><step>C</step><octave>5</octave></pitch><duration>4</duration><type>quarter</type></note>
      <note><pitch><step>B</step><octave>4</octave></pitch><duration>4</duration><type>quarter</type></note>
      <note><pitch><step>A</step><octave>4</octave></pitch><duration>4</duration><type>quarter</type></note>
      <note><pitch><step>B</step><octave>4</octave></pitch><duration>4</duration><type>quarter</type></note>
    </measure>
    <measure number="15">
      <note><pitch><step>C</step><octave>5</octave></pitch><duration>8</duration><type>half</type></note>
      <note><pitch><step>B</step><octave>4</octave></pitch><duration>8</duration><type>half</type></note>
    </measure>
    <measure number="16">
      <note><pitch><step>B</step><octave>4</octave></pitch><duration>16</duration><type>whole</type></note>
      <barline location="right"><bar-style>light-heavy</bar-style></barline>
    </measure>
  </part>
  <part id="P3">
    <measure number="1">
      <attributes>
        <divisions>4</divisions>
        <key><fifths>0</fifths></key>
        <time><beats>4</beats><beat-type>4</beat-type></time>
        <clef><sign>G</sign><line>2</line></clef>
      </attributes>
      <note><pitch><step>G</step><octave>4</octave></pitch><duration>4</duration><type>quarter</type></note>
      <note><pitch><step>G</step><octave>4</octave></pitch><duration>4</duration><type>quarter</type></note>
      <note><pitch><step>A</step><octave>4</octave></pitch><duration>4</duration><type>quarter</type></note>
      <note><pitch><step>G</step><octave>4</octave></pitch><duration>4</duration><type>quarter</type></note>
    </measure>
    <measure number="2">
      <note><pitch><step>G</step><octave>4</octave></pitch><duration>4</duration><type>quarter</type></note>
      <note><pitch><step>G</step><octave>4</octave></pitch><duration>4</duration><type>quarter</type></note>
      <note><pitch><step>A</step><octave>4</octave></pitch><duration>4</duration><type>quarter</type></note>
      <note><pitch><step>A</step><octave>4</octave></pitch><duration>4</duration><type>quarter</type></note>
    </measure>
    <measure number="3">
      <note><pitch><step>G</step><octave>4</octave></pitch><duration>8</duration><type>half</type></note>
      <note><pitch><step>G</step><octave>4</octave></pitch><duration>4</duration><type>quarter</type></note>
      <note><pitch><step>F</step><alter>1</alter><octave>4</octave></pitch><duration>4</duration><type>quarter</type></note>
    </measure>
    <measure number="4">
      <note><pitch><step>G</step><octave>4</octave></pitch><duration>12</duration><type>dotted half</type><dot/></note>
      <note><rest/><duration>4</duration><type>quarter</type></note>
    </measure>
    <measure number="5"><note><pitch><step>G</step><octave>4</octave></pitch><duration>4</duration><type>quarter</type></note><note><pitch><step>A</step><octave>4</octave></pitch><duration>4</duration><type>quarter</type></note><note><pitch><step>G</step><octave>4</octave></pitch><duration>4</duration><type>quarter</type></note><note><pitch><step>G</step><octave>4</octave></pitch><duration>4</duration><type>quarter</type></note></measure>
    <measure number="6"><note><pitch><step>G</step><octave>4</octave></pitch><duration>4</duration><type>quarter</type></note><note><pitch><step>G</step><octave>4</octave></pitch><duration>4</duration><type>quarter</type></note><note><pitch><step>A</step><octave>4</octave></pitch><duration>4</duration><type>quarter</type></note><note><pitch><step>B</step><octave>4</octave></pitch><duration>4</duration><type>quarter</type></note></measure>
    <measure number="7"><note><pitch><step>A</step><octave>4</octave></pitch><duration>8</duration><type>half</type></note><note><pitch><step>G</step><octave>4</octave></pitch><duration>8</duration><type>half</type></note></measure>
    <measure number="8"><note><pitch><step>G</step><octave>4</octave></pitch><duration>12</duration><type>dotted half</type><dot/></note><note><rest/><duration>4</duration><type>quarter</type></note></measure>
    <measure number="9"><note><pitch><step>B</step><octave>4</octave></pitch><duration>4</duration><type>quarter</type></note><note><pitch><step>B</step><octave>4</octave></pitch><duration>4</duration><type>quarter</type></note><note><pitch><step>A</step><octave>4</octave></pitch><duration>4</duration><type>quarter</type></note><note><pitch><step>G</step><octave>4</octave></pitch><duration>4</duration><type>quarter</type></note></measure>
    <measure number="10"><note><pitch><step>A</step><octave>4</octave></pitch><duration>4</duration><type>quarter</type></note><note><pitch><step>G</step><octave>4</octave></pitch><duration>4</duration><type>quarter</type></note><note><pitch><step>G</step><octave>4</octave></pitch><duration>4</duration><type>quarter</type></note><note><pitch><step>F</step><alter>1</alter><octave>4</octave></pitch><duration>4</duration><type>quarter</type></note></measure>
    <measure number="11"><note><pitch><step>G</step><octave>4</octave></pitch><duration>4</duration><type>quarter</type></note><note><pitch><step>A</step><octave>4</octave></pitch><duration>4</duration><type>quarter</type></note><note><pitch><step>A</step><octave>4</octave></pitch><duration>4</duration><type>quarter</type></note><note><pitch><step>B</step><octave>4</octave></pitch><duration>4</duration><type>quarter</type></note></measure>
    <measure number="12"><note><pitch><step>C</step><octave>5</octave></pitch><duration>8</duration><type>half</type></note><note><pitch><step>B</step><octave>4</octave></pitch><duration>4</duration><type>quarter</type></note><note><pitch><step>A</step><octave>4</octave></pitch><duration>4</duration><type>quarter</type></note></measure>
    <measure number="13"><note><pitch><step>B</step><octave>4</octave></pitch><duration>4</duration><type>quarter</type></note><note><pitch><step>B</step><octave>4</octave></pitch><duration>4</duration><type>quarter</type></note><note><pitch><step>A</step><octave>4</octave></pitch><duration>4</duration><type>quarter</type></note><note><pitch><step>G</step><octave>4</octave></pitch><duration>4</duration><type>quarter</type></note></measure>
    <measure number="14"><note><pitch><step>G</step><octave>4</octave></pitch><duration>4</duration><type>quarter</type></note><note><pitch><step>G</step><octave>4</octave></pitch><duration>4</duration><type>quarter</type></note><note><pitch><step>F</step><alter>1</alter><octave>4</octave></pitch><duration>4</duration><type>quarter</type></note><note><pitch><step>G</step><octave>4</octave></pitch><duration>4</duration><type>quarter</type></note></measure>
    <measure number="15"><note><pitch><step>A</step><octave>4</octave></pitch><duration>8</duration><type>half</type></note><note><pitch><step>G</step><octave>4</octave></pitch><duration>8</duration><type>half</type></note></measure>
    <measure number="16"><note><pitch><step>G</step><octave>4</octave></pitch><duration>16</duration><type>whole</type></note><barline location="right"><bar-style>light-heavy</bar-style></barline></measure>
  </part>
  <part id="P4">
    <measure number="1">
      <attributes>
        <divisions>4</divisions>
        <key><fifths>0</fifths></key>
        <time><beats>4</beats><beat-type>4</beat-type></time>
        <clef><sign>F</sign><line>4</line></clef>
      </attributes>
      <note><pitch><step>G</step><octave>3</octave></pitch><duration>4</duration><type>quarter</type></note>
      <note><pitch><step>G</step><octave>3</octave></pitch><duration>4</duration><type>quarter</type></note>
      <note><pitch><step>A</step><octave>3</octave></pitch><duration>4</duration><type>quarter</type></note>
      <note><pitch><step>B</step><octave>3</octave></pitch><duration>4</duration><type>quarter</type></note>
    </measure>
    <measure number="2"><note><pitch><step>C</step><octave>4</octave></pitch><duration>4</duration><type>quarter</type></note><note><pitch><step>B</step><octave>3</octave></pitch><duration>4</duration><type>quarter</type></note><note><pitch><step>A</step><octave>3</octave></pitch><duration>4</duration><type>quarter</type></note><note><pitch><step>D</step><octave>4</octave></pitch><duration>4</duration><type>quarter</type></note></measure>
    <measure number="3"><note><pitch><step>C</step><octave>4</octave></pitch><duration>8</duration><type>half</type></note><note><pitch><step>B</step><octave>3</octave></pitch><duration>4</duration><type>quarter</type></note><note><pitch><step>A</step><octave>3</octave></pitch><duration>4</duration><type>quarter</type></note></measure>
    <measure number="4"><note><pitch><step>G</step><octave>3</octave></pitch><duration>12</duration><type>dotted half</type><dot/></note><note><rest/><duration>4</duration><type>quarter</type></note></measure>
    <measure number="5"><note><pitch><step>G</step><octave>3</octave></pitch><duration>4</duration><type>quarter</type></note><note><pitch><step>A</step><octave>3</octave></pitch><duration>4</duration><type>quarter</type></note><note><pitch><step>B</step><octave>3</octave></pitch><duration>4</duration><type>quarter</type></note><note><pitch><step>A</step><octave>3</octave></pitch><duration>4</duration><type>quarter</type></note></measure>
    <measure number="6"><note><pitch><step>C</step><octave>4</octave></pitch><duration>4</duration><type>quarter</type></note><note><pitch><step>B</step><octave>3</octave></pitch><duration>4</duration><type>quarter</type></note><note><pitch><step>A</step><octave>3</octave></pitch><duration>4</duration><type>quarter</type></note><note><pitch><step>B</step><octave>3</octave></pitch><duration>4</duration><type>quarter</type></note></measure>
    <measure number="7"><note><pitch><step>D</step><octave>4</octave></pitch><duration>8</duration><type>half</type></note><note><pitch><step>C</step><octave>4</octave></pitch><duration>4</duration><type>quarter</type></note><note><pitch><step>B</step><octave>3</octave></pitch><duration>4</duration><type>quarter</type></note></measure>
    <measure number="8"><note><pitch><step>C</step><octave>4</octave></pitch><duration>12</duration><type>dotted half</type><dot/></note><note><rest/><duration>4</duration><type>quarter</type></note></measure>
    <measure number="9"><note><pitch><step>E</step><octave>4</octave></pitch><duration>4</duration><type>quarter</type></note><note><pitch><step>E</step><octave>4</octave></pitch><duration>4</duration><type>quarter</type></note><note><pitch><step>D</step><octave>4</octave></pitch><duration>4</duration><type>quarter</type></note><note><pitch><step>C</step><octave>4</octave></pitch><duration>4</duration><type>quarter</type></note></measure>
    <measure number="10"><note><pitch><step>D</step><octave>4</octave></pitch><duration>4</duration><type>quarter</type></note><note><pitch><step>C</step><octave>4</octave></pitch><duration>4</duration><type>quarter</type></note><note><pitch><step>B</step><octave>3</octave></pitch><duration>4</duration><type>quarter</type></note><note><pitch><step>A</step><octave>3</octave></pitch><duration>4</duration><type>quarter</type></note></measure>
    <measure number="11"><note><pitch><step>G</step><octave>3</octave></pitch><duration>4</duration><type>quarter</type></note><note><pitch><step>A</step><octave>3</octave></pitch><duration>4</duration><type>quarter</type></note><note><pitch><step>B</step><octave>3</octave></pitch><duration>4</duration><type>quarter</type></note><note><pitch><step>C</step><octave>4</octave></pitch><duration>4</duration><type>quarter</type></note></measure>
    <measure number="12"><note><pitch><step>D</step><octave>4</octave></pitch><duration>8</duration><type>half</type></note><note><pitch><step>C</step><octave>4</octave></pitch><duration>4</duration><type>quarter</type></note><note><pitch><step>B</step><octave>3</octave></pitch><duration>4</duration><type>quarter</type></note></measure>
    <measure number="13"><note><pitch><step>C</step><octave>4</octave></pitch><duration>4</duration><type>quarter</type></note><note><pitch><step>D</step><octave>4</octave></pitch><duration>4</duration><type>quarter</type></note><note><pitch><step>C</step><octave>4</octave></pitch><duration>4</duration><type>quarter</type></note><note><pitch><step>B</step><octave>3</octave></pitch><duration>4</duration><type>quarter</type></note></measure>
    <measure number="14"><note><pitch><step>A</step><octave>3</octave></pitch><duration>4</duration><type>quarter</type></note><note><pitch><step>G</step><octave>3</octave></pitch><duration>4</duration><type>quarter</type></note><note><pitch><step>A</step><octave>3</octave></pitch><duration>4</duration><type>quarter</type></note><note><pitch><step>B</step><octave>3</octave></pitch><duration>4</duration><type>quarter</type></note></measure>
    <measure number="15"><note><pitch><step>C</step><octave>4</octave></pitch><duration>8</duration><type>half</type></note><note><pitch><step>B</step><octave>3</octave></pitch><duration>8</duration><type>half</type></note></measure>
    <measure number="16"><note><pitch><step>G</step><octave>3</octave></pitch><duration>16</duration><type>whole</type></note><barline location="right"><bar-style>light-heavy</bar-style></barline></measure>
  </part>
  <part id="P5">
    <measure number="1">
      <attributes>
        <divisions>4</divisions>
        <key><fifths>0</fifths></key>
        <time><beats>4</beats><beat-type>4</beat-type></time>
        <clef><sign>F</sign><line>4</line></clef>
      </attributes>
      <note><pitch><step>G</step><octave>2</octave></pitch><duration>4</duration><type>quarter</type></note>
      <note><rest/><duration>4</duration><type>quarter</type></note>
      <note><pitch><step>G</step><octave>2</octave></pitch><duration>4</duration><type>quarter</type></note>
      <note><rest/><duration>4</duration><type>quarter</type></note>
    </measure>
    <measure number="2"><note><pitch><step>C</step><octave>3</octave></pitch><duration>4</duration><type>quarter</type></note><note><rest/><duration>4</duration><type>quarter</type></note><note><pitch><step>D</step><octave>3</octave></pitch><duration>4</duration><type>quarter</type></note><note><rest/><duration>4</duration><type>quarter</type></note></measure>
    <measure number="3"><note><pitch><step>C</step><octave>3</octave></pitch><duration>4</duration><type>quarter</type></note><note><rest/><duration>4</duration><type>quarter</type></note><note><pitch><step>G</step><octave>2</octave></pitch><duration>4</duration><type>quarter</type></note><note><rest/><duration>4</duration><type>quarter</type></note></measure>
    <measure number="4"><note><pitch><step>G</step><octave>2</octave></pitch><duration>8</duration><type>half</type></note><note><rest/><duration>8</duration><type>half</type></note></measure>
    <measure number="5"><note><pitch><step>G</step><octave>2</octave></pitch><duration>4</duration><type>quarter</type></note><note><rest/><duration>4</duration><type>quarter</type></note><note><pitch><step>G</step><octave>2</octave></pitch><duration>4</duration><type>quarter</type></note><note><rest/><duration>4</duration><type>quarter</type></note></measure>
    <measure number="6"><note><pitch><step>C</step><octave>3</octave></pitch><duration>4</duration><type>quarter</type></note><note><rest/><duration>4</duration><type>quarter</type></note><note><pitch><step>D</step><octave>3</octave></pitch><duration>4</duration><type>quarter</type></note><note><rest/><duration>4</duration><type>quarter</type></note></measure>
    <measure number="7"><note><pitch><step>D</step><octave>3</octave></pitch><duration>4</duration><type>quarter</type></note><note><rest/><duration>4</duration><type>quarter</type></note><note><pitch><step>G</step><octave>2</octave></pitch><duration>4</duration><type>quarter</type></note><note><rest/><duration>4</duration><type>quarter</type></note></measure>
    <measure number="8"><note><pitch><step>C</step><octave>3</octave></pitch><duration>8</duration><type>half</type></note><note><rest/><duration>8</duration><type>half</type></note></measure>
    <measure number="9"><note><pitch><step>E</step><octave>3</octave></pitch><duration>4</duration><type>quarter</type></note><note><rest/><duration>4</duration><type>quarter</type></note><note><pitch><step>D</step><octave>3</octave></pitch><duration>4</duration><type>quarter</type></note><note><rest/><duration>4</duration><type>quarter</type></note></measure>
    <measure number="10"><note><pitch><step>D</step><octave>3</octave></pitch><duration>4</duration><type>quarter</type></note><note><rest/><duration>4</duration><type>quarter</type></note><note><pitch><step>G</step><octave>2</octave></pitch><duration>4</duration><type>quarter</type></note><note><rest/><duration>4</duration><type>quarter</type></note></measure>
    <measure number="11"><note><pitch><step>G</step><octave>2</octave></pitch><duration>4</duration><type>quarter</type></note><note><rest/><duration>4</duration><type>quarter</type></note><note><pitch><step>B</step><octave>2</octave></pitch><duration>4</duration><type>quarter</type></note><note><rest/><duration>4</duration><type>quarter</type></note></measure>
    <measure number="12"><note><pitch><step>D</step><octave>3</octave></pitch><duration>4</duration><type>quarter</type></note><note><rest/><duration>4</duration><type>quarter</type></note><note><pitch><step>G</step><octave>2</octave></pitch><duration>4</duration><type>quarter</type></note><note><rest/><duration>4</duration><type>quarter</type></note></measure>
    <measure number="13"><note><pitch><step>C</step><octave>3</octave></pitch><duration>4</duration><type>quarter</type></note><note><rest/><duration>4</duration><type>quarter</type></note><note><pitch><step>D</step><octave>3</octave></pitch><duration>4</duration><type>quarter</type></note><note><rest/><duration>4</duration><type>quarter</type></note></measure>
    <measure number="14"><note><pitch><step>G</step><octave>2</octave></pitch><duration>4</duration><type>quarter</type></note><note><rest/><duration>4</duration><type>quarter</type></note><note><pitch><step>G</step><octave>2</octave></pitch><duration>4</duration><type>quarter</type></note><note><rest/><duration>4</duration><type>quarter</type></note></measure>
    <measure number="15"><note><pitch><step>C</step><octave>3</octave></pitch><duration>4</duration><type>quarter</type></note><note><rest/><duration>4</duration><type>quarter</type></note><note><pitch><step>G</step><octave>2</octave></pitch><duration>4</duration><type>quarter</type></note><note><rest/><duration>4</duration><type>quarter</type></note></measure>
    <measure number="16"><note><pitch><step>G</step><octave>2</octave></pitch><duration>16</duration><type>whole</type></note><barline location="right"><bar-style>light-heavy</bar-style></barline></measure>
  </part>
</score-partwise>